PathFileType	4	(X/Y/Z)	 Static_Ext01.trc
DataRate	CameraRate	NumFrames	NumMarkers	Units	OrigDataRate	OrigDataStartFrame	OrigNumFrames
250	250	5	58	m	250	53	423
Frame#	Time	RASI			LASI			RPSI			LPSI			RAIC			LAIC			RLFC			RMFC			RTH1			RTH2			RTH3			RLMAL			RMMAL			RTB1			RTB2			RTB3			RCAL			RMT1			RMT5			LLFC			LMFC			LTH1			LTH2			LTH3			LLMAL			LMMAL			LTB1			LTB2			LTB3			LCAL			LMT1			LMT5			C7			T10			CLAV			STRN			RACR			LACR			RHJC			LHJC			RKJC			LKJC			RAJC			LAJC			RMT3			LMT3			fRCAL			fLCAL			fRAJC			fLAJC			fRMT1			fLMT1			fRMT5			fLMT5			fRMT3			fLMT3			MTOR			MPEL			
		X1	Y1	Z1	X2	Y2	Z2	X3	Y3	Z3	X4	Y4	Z4	X5	Y5	Z5	X6	Y6	Z6	X7	Y7	Z7	X8	Y8	Z8	X9	Y9	Z9	X10	Y10	Z10	X11	Y11	Z11	X12	Y12	Z12	X13	Y13	Z13	X14	Y14	Z14	X15	Y15	Z15	X16	Y16	Z16	X17	Y17	Z17	X18	Y18	Z18	X19	Y19	Z19	X20	Y20	Z20	X21	Y21	Z21	X22	Y22	Z22	X23	Y23	Z23	X24	Y24	Z24	X25	Y25	Z25	X26	Y26	Z26	X27	Y27	Z27	X28	Y28	Z28	X29	Y29	Z29	X30	Y30	Z30	X31	Y31	Z31	X32	Y32	Z32	X33	Y33	Z33	X34	Y34	Z34	X35	Y35	Z35	X36	Y36	Z36	X37	Y37	Z37	X38	Y38	Z38	X39	Y39	Z39	X40	Y40	Z40	X41	Y41	Z41	X42	Y42	Z42	X43	Y43	Z43	X44	Y44	Z44	X45	Y45	Z45	X46	Y46	Z46	X47	Y47	Z47	X48	Y48	Z48	X49	Y49	Z49	X50	Y50	Z50	X51	Y51	Z51	X52	Y52	Z52	X53	Y53	Z53	X54	Y54	Z54	X55	Y55	Z55	X56	Y56	Z56	X57	Y57	Z57	X58	Y58	Z58	

53	0.212	0.376494	0.98327	0.413409	0.356136	0.980627	0.17644	0.191497	1.049815	0.35485	0.186189	1.054032	0.282349	0.304826	1.077674	0.45944	0.291012	1.07681	0.151618	0.251096	0.50346	0.461128	0.23492	0.494747	0.357573	0.277937	0.868596	0.497468	0.319441	0.773479	0.483649	0.257456	0.691689	0.489957	0.173854	0.09529700000000001	0.480125	0.19901	0.102789	0.396026	0.248074	0.369132	0.402342	0.251629	0.307433	0.459768	0.228013	0.233926	0.414998	0.110144	0.039774	0.420046	0.325523	0.046266	0.414665	0.3135	0.041963	0.507683	0.242941	0.517138	0.154364	0.244152	0.502121	0.265342	0.287234	0.863891	0.123536	0.327249	0.769105	0.138198	0.263283	0.686012	0.124824	0.173614	0.09884900000000001	0.140671	0.204083	0.102507	0.22231	0.252584	0.369029	0.212742	0.24478	0.301076	0.157482	0.227619	0.234397	0.208308	0.105768	0.041215	0.198612	0.327961	0.044513	0.196611	0.307817	0.04607	0.109916	0.212349	1.520905	0.304319	0.173042	1.224762	0.309399	0.323123	1.443567	0.304826	0.387705	1.237025	0.303174	0.224633	1.504076	0.450472	0.230441	1.51303	0.163398	0.2918844894387693	0.9266811303844881	0.3880492345856179	0.2771986041862283	0.9247745189922852	0.2171041740487582	0.243008	0.4991035	0.4093505	0.2435465	0.5096295	0.209853	0.186432	0.09904300000000001	0.4380755	0.1888485	0.100678	0.1814905	0.3195115	0.0441145	0.461174	0.317889	0.0452915	0.1532635	0.110144	0	0.420046	0.105768	0	0.198612	0.186432	0	0.4380755	0.1888485	0	0.1814905	0.325523	0	0.414665	0.327961	0	0.196611	0.3135	0	0.507683	0.307817	0	0.109916	0.3195115	0	0.461174	0.317889	0	0.1532635	0.2476365	1.4953945	0.30575375	0.277579	1.016936	0.306762	
54	0.216	0.376615	0.98324	0.413471	0.356344	0.980656	0.176474	0.191627	1.04981	0.354832	0.186343	1.054036	0.282344	0.304941	1.077668	0.459471	0.291227	1.076821	0.151641	0.251139	0.503428	0.461163	0.234978	0.494734	0.357571	0.278033	0.868571	0.497447	0.319553	0.773431	0.483721	0.257696	0.691663	0.489792	0.173847	0.095308	0.480111	0.199035	0.102807	0.395986	0.247917	0.369422	0.402191	0.251699	0.307422	0.45982	0.228024	0.233959	0.414947	0.110132	0.039792	0.420038	0.325536	0.046219	0.414666	0.313507	0.041974	0.507659	0.243005	0.51716	0.154361	0.244202	0.502116	0.265348	0.287425	0.863928	0.123563	0.327406	0.769074	0.138245	0.26341	0.685999	0.124828	0.173618	0.098858	0.140704	0.204116	0.102501	0.222318	0.252623	0.369042	0.212747	0.244828	0.301142	0.157419	0.227642	0.234409	0.208297	0.10577	0.041216	0.198616	0.327971	0.044502	0.196623	0.307826	0.046068	0.10992	0.212459	1.520888	0.304407	0.173182	1.224765	0.309408	0.323244	1.443606	0.304957	0.387887	1.237084	0.303305	0.224658	1.504047	0.450589	0.230607	1.513068	0.163489	0.2920092610554816	0.9266535024120525	0.3880625826605189	0.2773862396571927	0.9247894657442424	0.2170985353845934	0.2430585	0.499081	0.409367	0.2436035	0.509638	0.2098545	0.186441	0.09905749999999999	0.4380485	0.188867	0.1006795	0.181511	0.3195215	0.0440965	0.4611625	0.3178985	0.045285	0.1532715	0.110132	0	0.420038	0.10577	0	0.198616	0.186441	0	0.4380485	0.188867	0	0.181511	0.325536	0	0.414666	0.327971	0	0.196623	0.313507	0	0.507659	0.307826	0	0.10992	0.3195215	0	0.4611625	0.3178985	0	0.1532715	0.247742	1.49540225	0.3058605	0.27773225	1.0169355	0.30678025	
55	0.22	0.376714	0.983235	0.413516	0.35652	0.980641	0.176504	0.191768	1.049813	0.354808	0.186515	1.054037	0.282335	0.305038	1.077649	0.459506	0.291406	1.076827	0.151681	0.251195	0.503404	0.461152	0.235057	0.494681	0.357557	0.278108	0.868553	0.497427	0.319639	0.7734259999999999	0.483695	0.257647	0.691635	0.48993	0.173843	0.095305	0.480099	0.199158	0.102726	0.396073	0.24817	0.369159	0.402302	0.251713	0.307405	0.45979	0.228065	0.23393	0.41495	0.110141	0.039789	0.420038	0.325477	0.046165	0.41464	0.313522	0.041974	0.507709	0.243085	0.517187	0.154378	0.244256	0.502139	0.265353	0.287584	0.86394	0.1236	0.327561	0.769111	0.1383	0.263551	0.686061	0.124861	0.173611	0.098909	0.140676	0.204138	0.102522	0.22231	0.252638	0.369053	0.212762	0.244845	0.301142	0.157416	0.227667	0.234427	0.208337	0.105767	0.041223	0.198618	0.327931	0.044458	0.196599	0.30781	0.046064	0.109897	0.212561	1.520885	0.3045	0.173328	1.22473	0.309416	0.323373	1.4436	0.305145	0.388049	1.237133	0.303408	0.224694	1.50401	0.450679	0.230761	1.513092	0.163572	0.2921142262205957	0.9266517176197492	0.3880809080308398	0.2775467951170046	0.9247804728795929	0.2171065601688851	0.243126	0.4990424999999999	0.4093545	0.2436705	0.509663	0.2098655	0.1865005	0.09901550000000001	0.438086	0.1888745	0.1007155	0.181493	0.3194995	0.0440695	0.4611745	0.3178704999999999	0.045261	0.153248	0.110141	0	0.420038	0.105767	0	0.198618	0.1865005	0	0.438086	0.1888745	0	0.181493	0.325477	0	0.41464	0.327931	0	0.196599	0.313522	0	0.507709	0.30781	0	0.109897	0.3194995	0	0.4611745	0.3178704999999999	0	0.153248	0.24784725	1.49539675	0.305974	0.27787925	1.0169315	0.30679075	
56	0.224	0.376837	0.983225	0.413586	0.35656	0.980665	0.176631	0.1919	1.049799	0.354809	0.186675	1.05403	0.282315	0.305154	1.077628	0.459529	0.2916	1.076834	0.151716	0.251264	0.503373	0.46116	0.235116	0.494653	0.357526	0.278194	0.868516	0.497423	0.319717	0.773407	0.483687	0.257749	0.69162	0.489943	0.173854	0.095307	0.480087	0.199068	0.102775	0.396014	0.248317	0.368982	0.402177	0.251735	0.307407	0.459796	0.228081	0.233937	0.414959	0.110134	0.03979	0.420028	0.325498	0.046179	0.414657	0.313507	0.041967	0.507687	0.24315	0.517205	0.154384	0.244291	0.502153	0.265342	0.287767	0.863958	0.123627	0.327695	0.769112	0.138306	0.263658	0.686102	0.124913	0.173648	0.098898	0.140696	0.204123	0.102523	0.222307	0.252662	0.369015	0.212733	0.244882	0.301112	0.15749	0.227707	0.234434	0.208273	0.10576	0.041254	0.198614	0.327974	0.044536	0.196622	0.307823	0.046068	0.109906	0.212671	1.520878	0.304589	0.173469	1.224716	0.309409	0.323469	1.443616	0.30522	0.388194	1.237162	0.303531	0.224732	1.503988	0.450747	0.230938	1.513115	0.163663	0.2922474187405092	0.9266586922803848	0.3881808031370877	0.2776198514391042	0.9248119411687018	0.2172445102976923	0.24319	0.499013	0.409343	0.2437205	0.509679	0.209863	0.186461	0.099041	0.4380505	0.1888855	0.1007105	0.1815015	0.3195025	0.044073	0.461172	0.3178985	0.045302	0.153264	0.110134	0	0.420028	0.10576	0	0.198614	0.186461	0	0.4380505	0.1888855	0	0.1815015	0.325498	0	0.414657	0.327974	0	0.196622	0.313507	0	0.507687	0.307823	0	0.109906	0.3195025	0	0.461172	0.3178985	0	0.153264	0.2479525	1.49539925	0.30605475	0.277993	1.01692975	0.30683525	
57	0.228	0.376949	0.983203	0.413633	0.356875	0.980664	0.17663	0.192038	1.049801	0.354806	0.186853	1.054041	0.282324	0.305257	1.077613	0.459562	0.291801	1.076863	0.151703	0.251356	0.503346	0.461099	0.235214	0.494608	0.35755	0.278262	0.8685040000000001	0.497442	0.319803	0.773362	0.48367	0.257826	0.691582	0.489926	0.173844	0.09531199999999999	0.480085	0.199089	0.102784	0.395992	0.248344	0.368977	0.402144	0.251791	0.307378	0.459801	0.228143	0.233921	0.414961	0.11014	0.039811	0.420031	0.325556	0.04621	0.414748	0.313501	0.041964	0.50768	0.243211	0.517223	0.154384	0.244329	0.502173	0.265361	0.287942	0.863978	0.123668	0.327825	0.7691249999999999	0.138342	0.263766	0.686119	0.124964	0.17365	0.098881	0.140655	0.204113	0.102571	0.222242	0.252708	0.369046	0.212756	0.244903	0.301144	0.157492	0.227726	0.234452	0.20827	0.105778	0.041264	0.198618	0.327992	0.044577	0.196634	0.307843	0.046059	0.109921	0.212765	1.52087	0.304684	0.173597	1.224696	0.309431	0.323642	1.443684	0.305366	0.388338	1.237216	0.303622	0.224776	1.503975	0.450836	0.231098	1.513134	0.163754	0.2923651911697233	0.9266356142735043	0.3881455751684382	0.2778842228459715	0.9248040321984815	0.2171765139133733	0.243285	0.498977	0.4093245	0.24377	0.509698	0.2098725	0.1864665	0.099048	0.4380385	0.1888815	0.100726	0.1814485	0.3195285	0.044087	0.461214	0.3179175	0.045318	0.1532775	0.11014	0	0.420031	0.105778	0	0.198618	0.1864665	0	0.4380385	0.1888815	0	0.1814485	0.325556	0	0.414748	0.327992	0	0.196634	0.313501	0	0.50768	0.307843	0	0.109921	0.3195285	0	0.461214	0.3179175	0	0.1532775	0.24807025	1.49541575	0.30616	0.27817875	1.01692725	0.30684825	
